<svg width="142" height="30" viewBox="0 0 142 30" fill="none" xmlns="http://www.w3.org/2000/svg">
<g clip-path="url(#clip0_1497_1116)">
<path d="M44.9111 26.3835V3.61377H54.4476C55.4423 3.61377 56.3503 3.81665 57.1726 4.22348C58.0155 4.62924 58.7401 5.18607 59.3454 5.89075C59.9508 6.57492 60.427 7.34434 60.773 8.2001C61.1191 9.03427 61.2916 9.88895 61.2916 10.7652C61.2916 12.0051 61.0106 13.1814 60.4487 14.2929C59.9085 15.3828 59.1404 16.271 58.1457 16.9551C57.1509 17.6393 55.9837 17.9814 54.6428 17.9814H47.1827V26.3835H44.9122H44.9111ZM47.1816 15.9925H54.5452C55.4532 15.9925 56.2429 15.7465 56.9133 15.2555C57.5837 14.7634 58.1023 14.1224 58.47 13.3314C58.8378 12.5404 59.0211 11.6846 59.0211 10.7663C59.0211 9.84794 58.8052 8.95981 58.3724 8.1688C57.9396 7.3778 57.3668 6.75729 56.653 6.30837C55.9609 5.83787 55.1928 5.60262 54.35 5.60262H47.1816V15.9936V15.9925Z" fill="#1E1E21"/>
<path d="M78.1058 26.7073C76.4938 26.7073 75.0315 26.3868 73.72 25.7447C72.4085 25.1026 71.2792 24.2372 70.3332 23.1472C69.3873 22.0357 68.6561 20.7947 68.1398 19.4264C67.6234 18.0364 67.3652 16.6141 67.3652 15.1605C67.3652 13.7069 67.6343 12.1994 68.1712 10.831C68.7093 9.44111 69.4611 8.21197 70.4287 7.14255C71.418 6.05154 72.5679 5.19686 73.8794 4.57636C75.191 3.93427 76.6099 3.61377 78.1362 3.61377C79.7482 3.61377 81.2105 3.94506 82.522 4.60765C83.8335 5.27024 84.952 6.15837 85.8762 7.26989C86.8222 8.3814 87.5533 9.6224 88.0697 10.9907C88.586 12.3591 88.8442 13.7598 88.8442 15.1929C88.8442 16.7113 88.5752 18.1649 88.0382 19.5548C87.5002 20.9231 86.7484 22.1523 85.7808 23.2433C84.8131 24.3127 83.6741 25.1566 82.3626 25.7771C81.051 26.3976 79.6321 26.7073 78.1058 26.7073ZM69.6238 15.1605C69.6238 16.4005 69.8277 17.5983 70.2367 18.753C70.6457 19.8861 71.226 20.9015 71.9778 21.8005C72.7306 22.6767 73.6223 23.3825 74.6551 23.9177C75.7084 24.4314 76.8594 24.6872 78.1058 24.6872C79.4173 24.6872 80.5889 24.4195 81.6216 23.8854C82.675 23.3296 83.5678 22.6023 84.2989 21.7044C85.0518 20.785 85.6213 19.7587 86.0086 18.6256C86.3958 17.4925 86.5889 16.3379 86.5889 15.1616C86.5889 13.9217 86.385 12.7346 85.976 11.6015C85.567 10.4684 84.9758 9.45298 84.2024 8.55406C83.4495 7.65622 82.5578 6.95046 81.5251 6.43679C80.4935 5.92312 79.3533 5.66737 78.1069 5.66737C76.8605 5.66737 75.6455 5.93499 74.5911 6.46917C73.5594 7.00334 72.6666 7.73068 71.9138 8.6501C71.1826 9.54794 70.6131 10.5634 70.2041 11.6976C69.8169 12.8307 69.6238 13.9854 69.6238 15.1616V15.1605Z" fill="#1E1E21"/>
<path d="M94.9199 14.9683C94.9199 13.5784 95.1575 12.2209 95.6326 10.8946C96.1295 9.54784 96.8422 8.32842 97.7697 7.23849C98.6983 6.12698 99.8427 5.24964 101.203 4.60863C102.562 3.94604 104.106 3.61475 105.834 3.61475C107.884 3.61475 109.633 4.08525 111.08 5.02626C112.548 5.94568 113.627 7.13273 114.318 8.58633L112.537 9.67626C112.04 8.67158 111.414 7.88057 110.659 7.30324C109.903 6.70431 109.094 6.27698 108.23 6.02014C107.388 5.76331 106.546 5.63489 105.704 5.63489C104.322 5.63489 103.103 5.91331 102.045 6.46906C100.986 7.00324 100.091 7.73057 99.3567 8.65C98.644 9.54784 98.1049 10.5633 97.7371 11.6975C97.3705 12.809 97.1861 13.9432 97.1861 15.0978C97.1861 16.3594 97.4019 17.568 97.8337 18.7227C98.2654 19.8773 98.8697 20.9036 99.6475 21.8014C100.424 22.6777 101.331 23.3835 102.367 23.9187C103.425 24.4324 104.569 24.6881 105.8 24.6881C106.664 24.6881 107.549 24.5381 108.456 24.2392C109.363 23.9403 110.205 23.4806 110.981 22.8601C111.781 22.2396 112.418 21.4378 112.893 20.4547L114.771 21.4173C114.295 22.5504 113.561 23.5129 112.568 24.304C111.575 25.095 110.464 25.6939 109.233 26.1007C108.024 26.5065 106.836 26.7104 105.67 26.7104C104.094 26.7104 102.648 26.3791 101.331 25.7165C100.014 25.0324 98.8697 24.1345 97.8988 23.0219C96.9485 21.8888 96.2152 20.6273 95.6966 19.2374C95.1781 17.8259 94.9199 16.4047 94.9199 14.9716V14.9683Z" fill="#1E1E21"/>
<path d="M130.497 3.61353H132.415L142 26.3833H139.595L136.607 19.2642H126.24L123.284 26.3833H120.847L130.497 3.61353ZM136.086 17.4999L131.44 6.24338L126.728 17.4999H136.086Z" fill="#1E1E21"/>
<path fill-rule="evenodd" clip-rule="evenodd" d="M6.04232 2.99023C2.37354 5.72692 0 10.0877 0 14.9999C0 23.2845 6.75069 29.9999 15.0787 29.9999C20.0178 29.9999 24.4014 27.6377 27.1525 23.9881L25.522 22.3661C23.2027 25.6143 19.3897 27.7338 15.0787 27.7338C8.00906 27.7338 2.27807 22.0327 2.27807 14.9999C2.27807 10.7125 4.40862 6.91937 7.67277 4.61218L6.04232 2.99023Z" fill="url(#paint0_linear_1497_1116)"/>
<path fill-rule="evenodd" clip-rule="evenodd" d="M15.0782 2.26619H27.8789V15C27.8789 16.8399 27.4872 18.5881 26.781 20.1669L28.4885 21.8655C29.5549 19.8086 30.1569 17.4745 30.1569 15V1.72662C30.1569 0.772662 29.3802 0 28.4212 0H15.0782C12.5908 0 10.2444 0.598921 8.17676 1.65971L9.88423 3.35827C11.4713 2.65683 13.2297 2.26619 15.0782 2.26619Z" fill="url(#paint1_linear_1497_1116)"/>
</g>
<defs>
<linearGradient id="paint0_linear_1497_1116" x1="2.27822" y1="21.9065" x2="13.5035" y2="11.0562" gradientUnits="userSpaceOnUse">
<stop/>
<stop offset="1" stop-opacity="0"/>
</linearGradient>
<linearGradient id="paint1_linear_1497_1116" x1="23.7567" y1="-1.6186" x2="16.205" y2="6.40648" gradientUnits="userSpaceOnUse">
<stop stop-color="#2D5FFF"/>
<stop offset="1" stop-color="#2D5FFF" stop-opacity="0"/>
</linearGradient>
<clipPath id="clip0_1497_1116">
<rect width="142" height="30" fill="white"/>
</clipPath>
</defs>
</svg>
